<svg width="8" height="11" viewBox="0 0 8 11" fill="none" xmlns="http://www.w3.org/2000/svg">
<path d="M0.48215 0.1016C0.778213 -0.055521 1.1346 -0.0288331 1.40555 0.170748L6.22222 3.71874V0.916669C6.22222 0.410409 6.62019 3.36977e-06 7.11111 3.36977e-06C7.60203 3.36977e-06 8 0.410409 8 0.916669V10.0833C8 10.5896 7.60203 11 7.11111 11C6.62019 11 6.22222 10.5896 6.22222 10.0833V7.28126L1.40555 10.8293C1.1346 11.0288 0.778213 11.0555 0.48215 10.8984C0.186087 10.7413 0 10.4267 0 10.0833V0.916669C0 0.573298 0.186087 0.25872 0.48215 0.1016Z" fill="black"/>
</svg>
