<svg width="7" height="6" viewBox="0 0 7 6" fill="none" xmlns="http://www.w3.org/2000/svg">
<path d="M3.34065 1.09905C3.40584 0.966982 3.59416 0.966982 3.65935 1.09905L4.29423 2.38547C4.32011 2.43791 4.37014 2.47426 4.42802 2.48267L5.84766 2.68896C5.99341 2.71014 6.05161 2.88925 5.94614 2.99205L4.91888 3.99339C4.877 4.03421 4.85789 4.09303 4.86778 4.15067L5.11028 5.56457C5.13518 5.70973 4.98282 5.82043 4.85245 5.7519L3.58269 5.08434C3.53092 5.05712 3.46908 5.05712 3.41731 5.08434L2.14755 5.7519C2.01718 5.82043 1.86482 5.70973 1.88972 5.56457L2.13222 4.15067C2.14211 4.09303 2.123 4.03421 2.08112 3.99339L1.05386 2.99205C0.948391 2.88925 1.00659 2.71014 1.15234 2.68896L2.57198 2.48267C2.62986 2.47426 2.67989 2.43791 2.70577 2.38547L3.34065 1.09905Z" fill="black" stroke="black" stroke-width="0.2"/>
</svg>
