<svg width="8" height="11" viewBox="0 0 8 11" fill="none" xmlns="http://www.w3.org/2000/svg">
<path d="M7.51785 0.101599C7.22179 -0.0555211 6.8654 -0.0288329 6.59445 0.170748L1.77778 3.71874V0.916669C1.77778 0.410409 1.37981 3.3028e-06 0.888889 3.3028e-06C0.397969 3.3028e-06 0 0.410409 0 0.916669V10.0833C0 10.5896 0.397969 11 0.888889 11C1.37981 11 1.77778 10.5896 1.77778 10.0833V7.28126L6.59445 10.8293C6.8654 11.0288 7.22179 11.0555 7.51785 10.8984C7.81391 10.7413 8 10.4267 8 10.0833V0.916669C8 0.573298 7.81391 0.25872 7.51785 0.101599Z" fill="black"/>
</svg>
