<svg width="1024" height="1024" viewBox="0 0 1024 1024" fill="none" xmlns="http://www.w3.org/2000/svg">
<rect width="1024" height="1024" rx="124" fill="white"/>
<path fill-rule="evenodd" clip-rule="evenodd" d="M502.375 281.253L764.875 543.753V727.814C764.875 764.058 735.494 793.439 699.25 793.439H305.5C269.256 793.439 239.875 764.058 239.875 727.814V543.753L502.375 281.253Z" fill="black"/>
<path fill-rule="evenodd" clip-rule="evenodd" d="M721.125 246.564V399.689L633.625 312.189V246.564C633.625 234.483 643.419 224.689 655.5 224.689H699.25C711.331 224.689 721.125 234.483 721.125 246.564Z" fill="black"/>
<path fill-rule="evenodd" clip-rule="evenodd" d="M471.439 202.814C488.525 185.729 516.226 185.729 533.311 202.814L824.093 493.596C832.636 502.139 832.636 515.989 824.093 524.532C815.55 533.075 801.7 533.075 793.157 524.532L502.375 233.75L211.593 524.532C203.05 533.075 189.2 533.075 180.657 524.532C172.114 515.989 172.114 502.139 180.657 493.596L471.439 202.814Z" fill="black"/>
</svg>
